<?xml version="1.0" encoding="utf-8"?>
<!-- Generator: Adobe Illustrator 19.2.1, SVG Export Plug-In . SVG Version: 6.00 Build 0)  -->
<svg version="1.1" id="Layer_2" xmlns="http://www.w3.org/2000/svg" xmlns:xlink="http://www.w3.org/1999/xlink" x="0px" y="0px"
	 viewBox="0 0 80.3 80.3" style="enable-background:new 0 0 80.3 80.3;" xml:space="preserve">
<style type="text/css">
	.st0{fill:#EB6A5C;}
	.st1{fill:#552F2F;}
	.st2{fill:#55AB99;}
	.st3{fill:#2F4555;}
	.st4{fill:#FFFFFF;}
	.st5{fill:#ED6B5A;}
	.st6{fill:#0C2C48;}
	.st7{fill:#F1CC4B;}
	.st8{clip-path:url(#SVGID_2_);}
	.st9{clip-path:url(#SVGID_2_);fill:#F6A09C;}
	.st10{fill:#50646F;}
	.st11{fill:#FCA886;}
	.st12{fill:#EDAB7E;}
	.st13{fill:#332319;}
	.st14{fill:#E07E45;}
	.st15{fill:#FF8F8F;}
	.st16{fill:#A6D1D9;}
	.st17{fill:#628185;}
	.st18{fill:#BABABA;}
	.st19{fill:#698391;}
	.st20{opacity:0.41;fill:#FFFFFF;}
	.st21{fill:#F6A09C;}
	.st22{fill:#FFF3C9;}
	.st23{fill:#2384AB;}
	.st24{fill:#BABFC5;}
	.st25{clip-path:url(#SVGID_4_);}
	.st26{fill:#6EB9E0;}
	.st27{fill:#F8A06D;}
	.st28{fill:#A3B9C4;}
	.st29{fill:#3B4A52;}
	.st30{clip-path:url(#SVGID_6_);}
	.st31{clip-path:url(#SVGID_8_);fill:#F6A09C;}
	.st32{opacity:0.21;fill:#FFFFFF;}
	.st33{clip-path:url(#SVGID_10_);fill:#F6A09C;}
	.st34{clip-path:url(#SVGID_12_);}
	.st35{fill:#FFD3B5;}
	.st36{fill:#BFD9E6;}
	.st37{fill:#798287;}
	.st38{fill:#A4A8AD;}
	.st39{fill:#FFD6BA;}
	.st40{fill:none;stroke:#0C2C48;stroke-width:1.4;stroke-miterlimit:10;}
</style>
<g>
	<g>
		<circle class="st27" cx="40.2" cy="40.2" r="40.2"/>
	</g>
	<g>
		<g>
			<g>
				<path class="st6" d="M15.5,39.7h-1.6c0-9.7,7.9-17.5,17.5-17.5v1.6C22.6,23.8,15.5,30.9,15.5,39.7z"/>
			</g>
			<g>
				<path class="st6" d="M66.5,39.7h-1.6c0-8.8-7.2-16-16-16v-1.6C58.6,22.2,66.5,30.1,66.5,39.7z"/>
			</g>
		</g>
		<g>
			<rect x="13.8" y="44.9" class="st6" width="52.8" height="1.6"/>
		</g>
		<g>
			<g>
				<path class="st5" d="M53.8,31.4c0,0.6-0.4,1-1,1H27.5c-0.6,0-1-0.4-1-1v-12c0-0.6,0.4-1,1-1h25.2c0.6,0,1,0.4,1,1V31.4z"/>
			</g>
			<g>
				<path class="st6" d="M34.5,25.4c0-0.8,0.5-1.3,1.3-1.3c0.7,0,1.2,0.5,1.2,1.3c0,0.8-0.5,1.3-1.3,1.3
					C35,26.7,34.5,26.1,34.5,25.4z"/>
				<path class="st6" d="M38.9,25.4c0-0.8,0.5-1.3,1.3-1.3c0.7,0,1.2,0.5,1.2,1.3c0,0.8-0.5,1.3-1.3,1.3
					C39.4,26.7,38.9,26.1,38.9,25.4z"/>
				<path class="st6" d="M43.3,25.4c0-0.8,0.5-1.3,1.3-1.3c0.7,0,1.2,0.5,1.2,1.3c0,0.8-0.5,1.3-1.3,1.3
					C43.8,26.7,43.3,26.1,43.3,25.4z"/>
			</g>
		</g>
		<g>
			<g>
				<g>
					<path class="st2" d="M48.7,52.3c0,0.6-0.4,1-1,1h-15c-0.6,0-1-0.4-1-1V39.8c0-0.6,0.4-1,1-1h15c0.6,0,1,0.4,1,1V52.3z"/>
				</g>
				<g>
					<path class="st6" d="M36.7,46.1c0-0.8,0.5-1.3,1.3-1.3c0.7,0,1.2,0.5,1.2,1.3c0,0.8-0.5,1.3-1.3,1.3
						C37.2,47.4,36.7,46.8,36.7,46.1z"/>
					<path class="st6" d="M41.1,46.1c0-0.8,0.5-1.3,1.3-1.3c0.7,0,1.2,0.5,1.2,1.3c0,0.8-0.5,1.3-1.3,1.3
						C41.6,47.4,41.1,46.8,41.1,46.1z"/>
				</g>
			</g>
			<g>
				<g>
					<path class="st6" d="M74,52.3c0,0.6-0.4,1-1,1H58c-0.6,0-1-0.4-1-1V39.8c0-0.6,0.4-1,1-1h15c0.6,0,1,0.4,1,1V52.3z"/>
				</g>
				<g>
					<path class="st5" d="M62,46.1c0-0.8,0.5-1.3,1.3-1.3c0.7,0,1.2,0.5,1.2,1.3c0,0.8-0.5,1.3-1.3,1.3C62.5,47.4,62,46.8,62,46.1z"
						/>
					<path class="st5" d="M66.4,46.1c0-0.8,0.5-1.3,1.3-1.3c0.7,0,1.2,0.5,1.2,1.3c0,0.8-0.5,1.3-1.3,1.3
						C66.9,47.4,66.4,46.8,66.4,46.1z"/>
				</g>
			</g>
			<g>
				<g>
					<path class="st4" d="M23.4,52.3c0,0.6-0.4,1-1,1h-15c-0.6,0-1-0.4-1-1V39.8c0-0.6,0.4-1,1-1h15c0.6,0,1,0.4,1,1V52.3z"/>
				</g>
				<g>
					<path class="st5" d="M11.4,46.1c0-0.8,0.5-1.3,1.3-1.3c0.7,0,1.2,0.5,1.2,1.3c0,0.8-0.5,1.3-1.3,1.3
						C11.9,47.4,11.4,46.8,11.4,46.1z"/>
					<path class="st5" d="M15.8,46.1c0-0.8,0.5-1.3,1.3-1.3c0.7,0,1.2,0.5,1.2,1.3c0,0.8-0.5,1.3-1.3,1.3
						C16.3,47.4,15.8,46.8,15.8,46.1z"/>
				</g>
			</g>
		</g>
	</g>
</g>
</svg>
